<svg width="1340" height="275" viewBox="0 0 1340 275" fill="none" xmlns="http://www.w3.org/2000/svg">
<path d="M46.2182 125.061H181.766V167.784H46.2182V125.061ZM50.4905 271.872H0V0H198.466V42.3343H50.4905V271.872Z" fill="white"/>
<path d="M330.157 274.59C308.925 274.59 290.024 270.059 273.453 260.997C256.881 251.676 243.806 238.988 234.225 222.935C224.645 206.881 219.855 188.627 219.855 168.172C219.855 147.458 224.645 129.204 234.225 113.409C243.806 97.356 256.881 84.7981 273.453 75.7357C290.024 66.6733 308.925 62.1421 330.157 62.1421C351.648 62.1421 370.679 66.6733 387.25 75.7357C404.08 84.7981 417.156 97.2265 426.478 113.021C436.058 128.815 440.848 147.199 440.848 168.172C440.848 188.627 436.058 206.881 426.478 222.935C417.156 238.988 404.08 251.676 387.25 260.997C370.679 270.059 351.648 274.59 330.157 274.59ZM330.157 233.033C342.068 233.033 352.684 230.444 362.005 225.265C371.326 220.087 378.576 212.578 383.755 202.739C389.192 192.899 391.911 181.377 391.911 168.172C391.911 154.708 389.192 143.186 383.755 133.606C378.576 123.766 371.326 116.258 362.005 111.079C352.684 105.901 342.197 103.311 330.546 103.311C318.635 103.311 308.019 105.901 298.698 111.079C289.635 116.258 282.385 123.766 276.948 133.606C271.511 143.186 268.792 154.708 268.792 168.172C268.792 181.377 271.511 192.899 276.948 202.739C282.385 212.578 289.635 220.087 298.698 225.265C308.019 230.444 318.506 233.033 330.157 233.033Z" fill="white"/>
<path d="M580.486 274.59C559.254 274.59 540.352 270.059 523.781 260.997C507.21 251.676 494.134 238.988 484.554 222.935C474.973 206.881 470.183 188.627 470.183 168.172C470.183 147.458 474.973 129.204 484.554 113.409C494.134 97.356 507.21 84.7981 523.781 75.7357C540.352 66.6733 559.254 62.1421 580.486 62.1421C601.976 62.1421 621.007 66.6733 637.579 75.7357C654.409 84.7981 667.484 97.2265 676.806 113.021C686.386 128.815 691.176 147.199 691.176 168.172C691.176 188.627 686.386 206.881 676.806 222.935C667.484 238.988 654.409 251.676 637.579 260.997C621.007 270.059 601.976 274.59 580.486 274.59ZM580.486 233.033C592.396 233.033 603.012 230.444 612.333 225.265C621.655 220.087 628.905 212.578 634.083 202.739C639.521 192.899 642.239 181.377 642.239 168.172C642.239 154.708 639.521 143.186 634.083 133.606C628.905 123.766 621.655 116.258 612.333 111.079C603.012 105.901 592.526 103.311 580.874 103.311C568.963 103.311 558.347 105.901 549.026 111.079C539.964 116.258 532.714 123.766 527.276 133.606C521.839 143.186 519.12 154.708 519.12 168.172C519.12 181.377 521.839 192.899 527.276 202.739C532.714 212.578 539.964 220.087 549.026 225.265C558.347 230.444 568.834 233.033 580.486 233.033Z" fill="white"/>
<path d="M815.667 274.59C792.881 274.59 775.274 268.765 762.846 257.113C750.417 245.202 744.203 227.725 744.203 204.681V18.6426H792.752V203.515C792.752 213.355 795.212 220.993 800.131 226.43C805.31 231.868 812.43 234.586 821.493 234.586C832.367 234.586 841.43 231.738 848.68 226.042L862.273 260.608C856.577 265.269 849.586 268.765 841.3 271.095C833.015 273.425 824.47 274.59 815.667 274.59ZM710.025 104.865V66.026H848.291V104.865H710.025Z" fill="white"/>
<path d="M992.869 274.59C969.824 274.59 949.628 270.059 932.28 260.997C915.191 251.676 901.857 238.988 892.276 222.935C882.955 206.881 878.294 188.627 878.294 168.172C878.294 147.458 882.826 129.204 891.888 113.409C901.209 97.356 913.897 84.7981 929.95 75.7357C946.262 66.6733 964.775 62.1421 985.489 62.1421C1005.69 62.1421 1023.68 66.5439 1039.48 75.3473C1055.27 84.1508 1067.7 96.5792 1076.76 112.633C1085.82 128.686 1090.35 147.588 1090.35 169.337C1090.35 171.409 1090.22 173.739 1089.97 176.328C1089.97 178.917 1089.84 181.377 1089.58 183.708H916.745V151.471H1063.94L1044.91 161.569C1045.17 149.659 1042.71 139.172 1037.53 130.11C1032.35 121.048 1025.23 113.927 1016.17 108.749C1007.37 103.57 997.141 100.981 985.489 100.981C973.579 100.981 963.092 103.57 954.03 108.749C945.227 113.927 938.236 121.177 933.057 130.498C928.137 139.561 925.678 150.306 925.678 162.735V170.502C925.678 182.931 928.526 193.935 934.222 203.515C939.919 213.096 947.945 220.475 958.302 225.654C968.659 230.832 980.57 233.421 994.034 233.421C1005.69 233.421 1016.17 231.609 1025.49 227.984C1034.81 224.359 1043.1 218.663 1050.35 210.895L1076.37 240.801C1067.05 251.676 1055.27 260.091 1041.03 266.046C1027.05 271.742 1010.99 274.59 992.869 274.59Z" fill="white"/>
<path d="M1136.99 271.872V64.4724H1183.21V121.566L1177.77 104.865C1183.98 90.8828 1193.69 80.2669 1206.9 73.017C1220.36 65.7671 1237.06 62.1421 1257 62.1421V108.36C1254.93 107.842 1252.99 107.584 1251.17 107.584C1249.36 107.325 1247.55 107.195 1245.74 107.195C1227.35 107.195 1212.72 112.633 1201.85 123.507C1190.97 134.123 1185.54 150.047 1185.54 171.279V271.872H1136.99Z" fill="white"/>
<path d="M1249 223.852C1249 198.723 1269.37 178.352 1294.5 178.352C1319.63 178.352 1340 198.723 1340 223.852C1340 248.981 1319.63 269.352 1294.5 269.352C1269.37 269.352 1249 248.981 1249 223.852Z" fill="white"/>
<path d="M1294.19 263.348C1287.32 263.348 1281.04 261.58 1275.37 258.045C1269.74 254.51 1265.23 249.78 1261.85 243.855C1258.51 237.88 1256.84 231.282 1256.84 224.062C1256.84 218.585 1257.81 213.482 1259.76 208.751C1261.7 203.971 1264.36 199.789 1267.75 196.204C1271.18 192.569 1275.17 189.731 1279.7 187.69C1284.23 185.648 1289.06 184.627 1294.19 184.627C1301.06 184.627 1307.31 186.395 1312.93 189.93C1318.61 193.465 1323.12 198.221 1326.45 204.196C1329.84 210.171 1331.53 216.793 1331.53 224.062C1331.53 229.49 1330.56 234.568 1328.62 239.299C1326.68 244.029 1323.99 248.211 1320.55 251.846C1317.17 255.431 1313.21 258.244 1308.68 260.286C1304.2 262.327 1299.37 263.348 1294.19 263.348ZM1294.19 247.813C1298.32 247.813 1302.03 246.718 1305.32 244.527C1308.6 242.336 1311.19 239.448 1313.08 235.863C1315.03 232.228 1316 228.295 1316 224.062C1316 219.731 1315 215.747 1313.01 212.112C1311.07 208.478 1308.45 205.59 1305.17 203.449C1301.88 201.258 1298.22 200.162 1294.19 200.162C1290.1 200.162 1286.4 201.258 1283.06 203.449C1279.77 205.639 1277.16 208.552 1275.22 212.187C1273.32 215.822 1272.38 219.78 1272.38 224.062C1272.38 228.494 1273.37 232.502 1275.37 236.087C1277.36 239.672 1280 242.535 1283.28 244.676C1286.62 246.767 1290.25 247.813 1294.19 247.813Z" fill="#080808"/>
</svg>
